<?xml version="1.0" standalone="no"?><!DOCTYPE svg PUBLIC "-//W3C//DTD SVG 1.1//EN" "http://www.w3.org/Graphics/SVG/1.1/DTD/svg11.dtd"><svg t="1503995145510" class="icon" style="" viewBox="0 0 1024 1024" version="1.1" xmlns="http://www.w3.org/2000/svg" p-id="2389" xmlns:xlink="http://www.w3.org/1999/xlink" width="200" height="200"><defs><style type="text/css"></style></defs><path d="M737.24928 532.46976l-40.93952 0c-11.3152 0-20.48-9.1648-20.48-20.46976s9.1648-20.48 20.48-20.48l40.93952 0c11.3152 0 20.48 9.17504 20.48 20.48S748.57472 532.46976 737.24928 532.46976zM656.81408 396.16512c-7.99744 7.99744-20.98176 7.99744-28.95872 0-7.99744-7.99744-7.99744-20.96128 0-28.95872l28.95872-28.95872c7.97696-7.99744 20.96128-7.99744 28.95872 0 7.97696 7.99744 7.97696 20.96128 0 28.95872L656.81408 396.16512zM512.01024 634.85952c-67.86048 0-122.88-55.00928-122.88-122.85952 0-67.86048 55.00928-122.86976 122.88-122.86976 67.86048 0 122.85952 55.00928 122.85952 122.86976C634.86976 579.85024 579.87072 634.85952 512.01024 634.85952zM512.01024 430.09024c-45.24032 0-81.92 36.66944-81.92 81.90976 0 45.23008 36.68992 81.90976 81.92 81.90976s81.89952-36.67968 81.89952-81.90976C593.90976 466.75968 557.25056 430.09024 512.01024 430.09024zM512.01024 348.18048c-11.3152 0-20.48-9.17504-20.48-20.48l0-40.94976c0-11.30496 9.1648-20.48 20.48-20.48 11.30496 0 20.48 9.17504 20.48 20.48l0 40.94976C532.49024 339.00544 523.30496 348.18048 512.01024 348.18048zM367.2064 396.16512l-28.95872-28.95872c-7.99744-7.99744-7.99744-20.96128 0-28.95872s20.96128-7.99744 28.95872 0l28.95872 28.95872c7.99744 7.99744 7.99744 20.96128 0 28.95872S375.20384 404.16256 367.2064 396.16512zM348.18048 512c0 11.30496-9.17504 20.46976-20.48 20.46976l-40.96 0c-11.30496 0-20.46976-9.1648-20.46976-20.46976s9.17504-20.48 20.46976-20.48l40.96 0C339.01568 491.52 348.18048 500.69504 348.18048 512zM367.2064 627.83488c7.99744-7.9872 20.96128-7.9872 28.95872 0 7.99744 7.99744 7.99744 20.97152 0 28.95872l-28.95872 28.95872c-7.99744 7.99744-20.96128 7.99744-28.95872 0-7.99744-7.9872-7.99744-20.96128 0-28.95872L367.2064 627.83488zM512.01024 675.81952c11.30496 0 20.48 9.1648 20.48 20.46976l0 40.96c0 11.30496-9.17504 20.48-20.48 20.48-11.3152 0-20.48-9.17504-20.48-20.48l0-40.96C491.53024 684.98432 500.69504 675.81952 512.01024 675.81952zM656.81408 627.83488l28.95872 28.95872c7.97696 7.99744 7.97696 20.97152 0 28.95872-7.99744 7.99744-20.98176 7.99744-28.95872 0l-28.95872-28.95872c-7.99744-7.9872-7.99744-20.96128 0-28.95872C635.83232 619.83744 648.8064 619.83744 656.81408 627.83488z" p-id="2390" fill="#eeeeee"></path></svg>