<?xml version="1.0" standalone="no"?><!DOCTYPE svg PUBLIC "-//W3C//DTD SVG 1.1//EN" "http://www.w3.org/Graphics/SVG/1.1/DTD/svg11.dtd"><svg t="1503645477824" class="icon" style="" viewBox="0 0 1024 1024" version="1.1" xmlns="http://www.w3.org/2000/svg" p-id="3803" xmlns:xlink="http://www.w3.org/1999/xlink" width="200" height="200"><defs><style type="text/css"></style></defs><path d="M704 213.333333C770.133333 213.333333 832 233.386667 882.773333 267.946667L833.28 391.253333C799.146667 360.106667 753.92 341.333333 704 341.333333 597.333333 341.333333 512 426.666667 512 533.333333 512 640 597.333333 725.333333 704 725.333333 747.946667 725.333333 788.053333 710.826667 820.48 686.08L869.12 807.68C820.906667 836.693333 764.586667 853.333333 704 853.333333 527.36 853.333333 384 709.973333 384 533.333333 384 356.693333 527.36 213.333333 704 213.333333M256 128C326.826667 128 384 185.173333 384 256 384 326.826667 326.826667 384 256 384 185.173333 384 128 326.826667 128 256 128 185.173333 185.173333 128 256 128M256 213.333333C232.533333 213.333333 213.333333 232.533333 213.333333 256 213.333333 279.466667 232.533333 298.666667 256 298.666667 279.466667 298.666667 298.666667 279.466667 298.666667 256 298.666667 232.533333 279.466667 213.333333 256 213.333333Z" p-id="3804" fill="#e6e6e6"></path></svg>