<?xml version="1.0" standalone="no"?><!DOCTYPE svg PUBLIC "-//W3C//DTD SVG 1.1//EN" "http://www.w3.org/Graphics/SVG/1.1/DTD/svg11.dtd"><svg t="1500479666277" class="icon" style="" viewBox="0 0 1024 1024" version="1.1" xmlns="http://www.w3.org/2000/svg" p-id="2379" xmlns:xlink="http://www.w3.org/1999/xlink" width="200" height="200"><defs><style type="text/css"></style></defs><path d="M839.55712 358.4c0-180.98176-146.71872-327.68-327.68-327.68-180.98176 0-327.68 146.69824-327.68 327.68 0 0-0.67584 10.24 1.51552 30.12608 1.47456 16.13824 4.32128 31.82592 8.04864 47.2064 21.83168 98.11968 92.3648 287.70304 318.11584 557.54752C863.9488 578.58048 839.55712 358.4 839.55712 358.4zM511.87712 440.32c-45.24032 0-81.92-36.67968-81.92-81.92 0-45.24032 36.67968-81.92 81.92-81.92 45.24032 0 81.92 36.67968 81.92 81.92C593.79712 403.64032 557.11744 440.32 511.87712 440.32z" p-id="2380" fill="#d81e06"></path></svg>