<?xml version="1.0" standalone="no"?><!DOCTYPE svg PUBLIC "-//W3C//DTD SVG 1.1//EN" "http://www.w3.org/Graphics/SVG/1.1/DTD/svg11.dtd"><svg t="1500476746527" class="icon" style="" viewBox="0 0 1024 1024" version="1.1" xmlns="http://www.w3.org/2000/svg" p-id="10164" xmlns:xlink="http://www.w3.org/1999/xlink" width="200" height="200"><defs><style type="text/css"></style></defs><path d="M512 60.224c249.088 0 451.776 202.688 451.776 451.776s-202.688 451.776-451.776 451.776c-249.088 0-451.776-202.688-451.776-451.776s202.688-451.776 451.776-451.776l0 0zM512 0c-282.752 0-512 229.248-512 512s229.248 512 512 512c282.752 0 512-229.248 512-512s-229.248-512-512-512l0 0 0 0z" p-id="10165"></path><path d="M198.72 566.208c-20.48-1.216-44.672 6.08-48.064 20.416s105.792 132.416 105.792 132.416 49.664 13.632 115.392-10.176c123.904-51.84 490.624-300.8 500.032-336.064s-23.232-62.528-57.728-50.88c-99.968 33.664-230.784 112.064-230.784 112.064s-226.944-135.424-259.648-132.416c-32.64 3.008-54.528 25.856-48.064 40.768 50.944 117.248 128 213.312 124.992 224.064-1.472 5.312-20.416 17.984-35.328 30.336-17.088 14.144-35.328 32.064-41.6 30.72-12.544-2.688-104.448-59.904-124.992-61.184l0 0z" p-id="10166"></path></svg>